REM DIRINDEX 1\2,1\3,1\4,1\5,1\6,1\7,1\8
REM DIRNAME cjc152,folder01,folder02,folder03,folder04,folder05,folder06,folder07
TITLE ""
FILE "23_Ch5_Housework_Tweets.mp3" MP3
  TRACK 01 AUDIO
    TITLE "0:"
    INDEX 01 00:00:00
  TRACK 02 AUDIO
    TITLE "8:cjc152_1251"
    INDEX 01 00:00:03
  TRACK 03 AUDIO
    TITLE "0:"
    INDEX 01 00:02:53
  TRACK 04 AUDIO
    TITLE "8:cjc152_1252"
    INDEX 01 00:03:41
  TRACK 05 AUDIO
    TITLE "0:"
    INDEX 01 00:05:09
  TRACK 06 AUDIO
    TITLE "4:cjc152_1253"
    INDEX 01 00:06:02
  TRACK 07 AUDIO
    TITLE "0:"
    INDEX 01 00:08:44
  TRACK 08 AUDIO
    TITLE "4:cjc152_1254"
    INDEX 01 00:09:34
  TRACK 09 AUDIO
    TITLE "0:"
    INDEX 01 00:11:54
  TRACK 10 AUDIO
    TITLE "4:cjc152_1255"
    INDEX 01 00:13:37
  TRACK 11 AUDIO
    TITLE "0:"
    INDEX 01 00:15:52
  TRACK 12 AUDIO
    TITLE "4:cjc152_1256"
    INDEX 01 00:16:44
  TRACK 13 AUDIO
    TITLE "0:"
    INDEX 01 00:18:74
  TRACK 14 AUDIO
    TITLE "4:cjc152_1257"
    INDEX 01 00:20:57
  TRACK 15 AUDIO
    TITLE "0:"
    INDEX 01 00:25:35
  TRACK 16 AUDIO
    TITLE "4:cjc152_1258"
    INDEX 01 00:26:24
  TRACK 17 AUDIO
    TITLE "0:"
    INDEX 01 00:30:54
  TRACK 18 AUDIO
    TITLE "4:cjc152_1259"
    INDEX 01 00:32:37
  TRACK 19 AUDIO
    TITLE "0:"
    INDEX 01 00:36:66
  TRACK 20 AUDIO
    TITLE "4:cjc152_1260"
    INDEX 01 00:37:57
  TRACK 21 AUDIO
    TITLE "0:"
    INDEX 01 00:41:45
  TRACK 22 AUDIO
    TITLE "4:cjc152_1261"
    INDEX 01 00:43:31
  TRACK 23 AUDIO
    TITLE "0:"
    INDEX 01 00:47:36
  TRACK 24 AUDIO
    TITLE "4:cjc152_1262"
    INDEX 01 00:48:51
  TRACK 25 AUDIO
    TITLE "0:"
    INDEX 01 00:52:41
  TRACK 26 AUDIO
    TITLE "4:cjc152_1263"
    INDEX 01 00:54:25
  TRACK 27 AUDIO
    TITLE "0:"
    INDEX 01 00:56:71
  TRACK 28 AUDIO
    TITLE "4:cjc152_1264"
    INDEX 01 00:57:60
  TRACK 29 AUDIO
    TITLE "0:"
    INDEX 01 01:01:66
  TRACK 30 AUDIO
    TITLE "4:cjc152_1265"
    INDEX 01 01:03:51
  TRACK 31 AUDIO
    TITLE "0:"
    INDEX 01 01:07:21
  TRACK 32 AUDIO
    TITLE "4:cjc152_1266"
    INDEX 01 01:08:13
  TRACK 33 AUDIO
    TITLE "0:"
    INDEX 01 01:13:00
  TRACK 34 AUDIO
    TITLE "4:cjc152_1267"
    INDEX 01 01:14:72
  TRACK 35 AUDIO
    TITLE "0:"
    INDEX 01 01:19:28
  TRACK 36 AUDIO
    TITLE "4:cjc152_1268"
    INDEX 01 01:20:20
  TRACK 37 AUDIO
    TITLE "0:"
    INDEX 01 01:25:00
  TRACK 38 AUDIO
    TITLE "4:cjc152_1269"
    INDEX 01 01:26:60
  TRACK 39 AUDIO
    TITLE "0:"
    INDEX 01 01:30:30
  TRACK 40 AUDIO
    TITLE "4:cjc152_1270"
    INDEX 01 01:31:22
  TRACK 41 AUDIO
    TITLE "0:"
    INDEX 01 01:36:54
  TRACK 42 AUDIO
    TITLE "4:cjc152_1271"
    INDEX 01 01:38:42
  TRACK 43 AUDIO
    TITLE "0:"
    INDEX 01 01:40:66
  TRACK 44 AUDIO
    TITLE "4:cjc152_1272"
    INDEX 01 01:41:59
  TRACK 45 AUDIO
    TITLE "0:"
    INDEX 01 01:44:54
  TRACK 46 AUDIO
    TITLE "4:cjc152_1273"
    INDEX 01 01:46:33
  TRACK 47 AUDIO
    TITLE "0:"
    INDEX 01 01:49:32
  TRACK 48 AUDIO
    TITLE "4:cjc152_1274"
    INDEX 01 01:50:25
  TRACK 49 AUDIO
    TITLE "0:"
    INDEX 01 01:54:19
  TRACK 50 AUDIO
    TITLE "4:cjc152_1275"
    INDEX 01 01:56:02
  TRACK 51 AUDIO
    TITLE "0:"
    INDEX 01 01:59:01
  TRACK 52 AUDIO
    TITLE "4:cjc152_1276"
    INDEX 01 01:59:67
  TRACK 53 AUDIO
    TITLE "0:"
    INDEX 01 02:02:24
  TRACK 54 AUDIO
    TITLE "4:cjc152_1277"
    INDEX 01 02:04:12
  TRACK 55 AUDIO
    TITLE "0:"
    INDEX 01 02:06:65
  TRACK 56 AUDIO
    TITLE "4:cjc152_1278"
    INDEX 01 02:07:57
  TRACK 57 AUDIO
    TITLE "0:"
    INDEX 01 02:10:43
  TRACK 58 AUDIO
    TITLE "4:cjc152_1279"
    INDEX 01 02:12:29
  TRACK 59 AUDIO
    TITLE "0:"
    INDEX 01 02:14:04
  TRACK 60 AUDIO
    TITLE "4:cjc152_1280"
    INDEX 01 02:14:71
  TRACK 61 AUDIO
    TITLE "0:"
    INDEX 01 02:17:61
  TRACK 62 AUDIO
    TITLE "4:cjc152_1281"
    INDEX 01 02:19:46
  TRACK 63 AUDIO
    TITLE "0:"
    INDEX 01 02:22:06
  TRACK 64 AUDIO
    TITLE "4:cjc152_1282"
    INDEX 01 02:22:70
  TRACK 65 AUDIO
    TITLE "0:"
    INDEX 01 02:25:23
  TRACK 66 AUDIO
    TITLE "4:cjc152_1283"
    INDEX 01 02:27:38
  TRACK 67 AUDIO
    TITLE "0:"
    INDEX 01 02:33:70
  TRACK 68 AUDIO
    TITLE "4:cjc152_1284"
    INDEX 01 02:34:66
  TRACK 69 AUDIO
    TITLE "0:"
    INDEX 01 02:43:51
  TRACK 70 AUDIO
    TITLE "4:cjc152_1285"
    INDEX 01 02:45:36
  TRACK 71 AUDIO
    TITLE "0:"
    INDEX 01 02:47:60
  TRACK 72 AUDIO
    TITLE "4:cjc152_1286"
    INDEX 01 02:48:54
  TRACK 73 AUDIO
    TITLE "0:"
    INDEX 01 02:52:01
  TRACK 74 AUDIO
    TITLE "4:cjc152_1287"
    INDEX 01 02:53:61
  TRACK 75 AUDIO
    TITLE "0:"
    INDEX 01 02:56:02
  TRACK 76 AUDIO
    TITLE "4:cjc152_1288"
    INDEX 01 02:56:71
  TRACK 77 AUDIO
    TITLE "0:"
    INDEX 01 02:59:63
  TRACK 78 AUDIO
    TITLE "4:cjc152_1289"
    INDEX 01 03:01:47
  TRACK 79 AUDIO
    TITLE "0:"
    INDEX 01 03:05:01
  TRACK 80 AUDIO
    TITLE "4:cjc152_1290"
    INDEX 01 03:05:70
  TRACK 81 AUDIO
    TITLE "0:"
    INDEX 01 03:10:55
  TRACK 82 AUDIO
    TITLE "4:cjc152_1291"
    INDEX 01 03:12:43
  TRACK 83 AUDIO
    TITLE "0:"
    INDEX 01 03:15:61
  TRACK 84 AUDIO
    TITLE "4:cjc152_1292"
    INDEX 01 03:16:48
  TRACK 85 AUDIO
    TITLE "0:"
    INDEX 01 03:20:56
  TRACK 86 AUDIO
    TITLE "4:cjc152_1293"
    INDEX 01 03:22:39
  TRACK 87 AUDIO
    TITLE "0:"
    INDEX 01 03:25:71
  TRACK 88 AUDIO
    TITLE "4:cjc152_1294"
    INDEX 01 03:26:64
  TRACK 89 AUDIO
    TITLE "0:"
    INDEX 01 03:29:49
  TRACK 90 AUDIO
    TITLE "4:cjc152_1295"
    INDEX 01 03:31:32
  TRACK 91 AUDIO
    TITLE "0:"
    INDEX 01 03:35:50
  TRACK 92 AUDIO
    TITLE "4:cjc152_1296"
    INDEX 01 03:36:43
  TRACK 93 AUDIO
    TITLE "0:"
    INDEX 01 03:42:14
  TRACK 94 AUDIO
    TITLE "4:cjc152_1297"
    INDEX 01 03:44:00
  TRACK 95 AUDIO
    TITLE "0:"
    INDEX 01 03:47:59
  TRACK 96 AUDIO
    TITLE "4:cjc152_1298"
    INDEX 01 03:48:66
  TRACK 97 AUDIO
    TITLE "0:"
    INDEX 01 03:53:34
  TRACK 98 AUDIO
    TITLE "4:cjc152_1299"
    INDEX 01 03:55:19
  TRACK 99 AUDIO
    TITLE "0:"
    INDEX 01 03:57:06
  TRACK 100 AUDIO
    TITLE "4:cjc152_1300"
    INDEX 01 03:58:02
  TRACK 101 AUDIO
    TITLE "0:"
    INDEX 01 04:00:18
  TRACK 102 AUDIO
    TITLE "4:cjc152_1301"
    INDEX 01 04:02:01
  TRACK 103 AUDIO
    TITLE "0:"
    INDEX 01 04:05:57
  TRACK 104 AUDIO
    TITLE "4:cjc152_1302"
    INDEX 01 04:06:48
  TRACK 105 AUDIO
    TITLE "0:"
    INDEX 01 04:11:00
  TRACK 106 AUDIO
    TITLE "4:cjc152_1303"
    INDEX 01 04:12:59
  TRACK 107 AUDIO
    TITLE "0:"
    INDEX 01 04:16:50
  TRACK 108 AUDIO
    TITLE "4:cjc152_1304"
    INDEX 01 04:17:42
  TRACK 109 AUDIO
    TITLE "0:"
    INDEX 01 04:21:42
  TRACK 110 AUDIO
    TITLE "4:cjc152_1305"
    INDEX 01 04:23:41
  TRACK 111 AUDIO
    TITLE "0:"
    INDEX 01 04:25:67
  TRACK 112 AUDIO
    TITLE "4:cjc152_1306"
    INDEX 01 04:26:61
  TRACK 113 AUDIO
    TITLE "0:"
    INDEX 01 04:31:70
  TRACK 114 AUDIO
    TITLE "4:cjc152_1307"
    INDEX 01 04:33:51
  TRACK 115 AUDIO
    TITLE "0:"
    INDEX 01 04:38:07
  TRACK 116 AUDIO
    TITLE "4:cjc152_1308"
    INDEX 01 04:39:03
  TRACK 117 AUDIO
    TITLE "0:"
    INDEX 01 04:43:38
  TRACK 118 AUDIO
    TITLE "4:cjc152_1309"
    INDEX 01 04:45:21
  TRACK 119 AUDIO
    TITLE "0:"
    INDEX 01 04:47:26
  TRACK 120 AUDIO
    TITLE "4:cjc152_1310"
    INDEX 01 04:48:17
  TRACK 121 AUDIO
    TITLE "0:"
    INDEX 01 04:51:27
  TRACK 122 AUDIO
    TITLE "4:cjc152_1311"
    INDEX 01 04:53:12
  TRACK 123 AUDIO
    TITLE "0:"
    INDEX 01 04:57:10
  TRACK 124 AUDIO
    TITLE "4:cjc152_1312"
    INDEX 01 04:58:21
  TRACK 125 AUDIO
    TITLE "0:"
    INDEX 01 05:01:51
  TRACK 126 AUDIO
    TITLE "4:cjc152_1313"
    INDEX 01 05:03:36
  TRACK 127 AUDIO
    TITLE "0:"
    INDEX 01 05:08:67
  TRACK 128 AUDIO
    TITLE "4:cjc152_1314"
    INDEX 01 05:09:60
  TRACK 129 AUDIO
    TITLE "0:"
    INDEX 01 05:14:66
  TRACK 130 AUDIO
    TITLE "4:cjc152_1315"
    INDEX 01 05:16:49
  TRACK 131 AUDIO
    TITLE "0:"
    INDEX 01 05:19:49
  TRACK 132 AUDIO
    TITLE "4:cjc152_1316"
    INDEX 01 05:20:45
  TRACK 133 AUDIO
    TITLE "0:"
    INDEX 01 05:23:57
  TRACK 134 AUDIO
    TITLE "4:cjc152_1317"
    INDEX 01 05:25:38
  TRACK 135 AUDIO
    TITLE "0:"
    INDEX 01 05:28:26
  TRACK 136 AUDIO
    TITLE "4:cjc152_1318"
    INDEX 01 05:29:20
  TRACK 137 AUDIO
    TITLE "0:"
    INDEX 01 05:32:63
  TRACK 138 AUDIO
    TITLE "4:cjc152_1319"
    INDEX 01 05:34:51
  TRACK 139 AUDIO
    TITLE "0:"
    INDEX 01 05:38:01
  TRACK 140 AUDIO
    TITLE "4:cjc152_1320"
    INDEX 01 05:38:70
  TRACK 141 AUDIO
    TITLE "0:"
    INDEX 01 05:43:42
  TRACK 142 AUDIO
    TITLE "4:cjc152_1321"
    INDEX 01 05:45:23
  TRACK 143 AUDIO
    TITLE "0:"
    INDEX 01 05:47:55
  TRACK 144 AUDIO
    TITLE "4:cjc152_1322"
    INDEX 01 05:48:47
  TRACK 145 AUDIO
    TITLE "0:"
    INDEX 01 05:50:73
  TRACK 146 AUDIO
    TITLE "4:cjc152_1323"
    INDEX 01 05:52:62
  TRACK 147 AUDIO
    TITLE "0:"
    INDEX 01 05:56:01
  TRACK 148 AUDIO
    TITLE "4:cjc152_1324"
    INDEX 01 05:56:70
  TRACK 149 AUDIO
    TITLE "0:"
    INDEX 01 06:00:48
  TRACK 150 AUDIO
    TITLE "4:cjc152_1325"
    INDEX 01 06:02:33
  TRACK 151 AUDIO
    TITLE "0:"
    INDEX 01 06:04:73
  TRACK 152 AUDIO
    TITLE "4:cjc152_1326"
    INDEX 01 06:05:65
  TRACK 153 AUDIO
    TITLE "0:"
    INDEX 01 06:09:20
  TRACK 154 AUDIO
    TITLE "4:cjc152_1327"
    INDEX 01 06:11:01
  TRACK 155 AUDIO
    TITLE "0:"
    INDEX 01 06:14:05
  TRACK 156 AUDIO
    TITLE "4:cjc152_1328"
    INDEX 01 06:14:74
  TRACK 157 AUDIO
    TITLE "0:"
    INDEX 01 06:19:04
  TRACK 158 AUDIO
    TITLE "4:cjc152_1329"
    INDEX 01 06:20:64
  TRACK 159 AUDIO
    TITLE "0:"
    INDEX 01 06:25:21
  TRACK 160 AUDIO
    TITLE "4:cjc152_1330"
    INDEX 01 06:26:12
  TRACK 161 AUDIO
    TITLE "0:"
    INDEX 01 06:30:08
  TRACK 162 AUDIO
    TITLE "4:cjc152_1331"
    INDEX 01 06:31:68
  TRACK 163 AUDIO
    TITLE "0:"
    INDEX 01 06:35:03
  TRACK 164 AUDIO
    TITLE "4:cjc152_1332"
    INDEX 01 06:35:72
  TRACK 165 AUDIO
    TITLE "0:"
    INDEX 01 06:39:03
  TRACK 166 AUDIO
    TITLE "4:cjc152_1333"
    INDEX 01 06:40:61
  TRACK 167 AUDIO
    TITLE "0:"
    INDEX 01 06:44:43
  TRACK 168 AUDIO
    TITLE "4:cjc152_1334"
    INDEX 01 06:45:35
  TRACK 169 AUDIO
    TITLE "0:"
    INDEX 01 06:49:23
  TRACK 170 AUDIO
    TITLE "4:cjc152_1335"
    INDEX 01 06:51:18
  TRACK 171 AUDIO
    TITLE "0:"
    INDEX 01 06:56:00
  TRACK 172 AUDIO
    TITLE "4:cjc152_1336"
    INDEX 01 06:56:68
  TRACK 173 AUDIO
    TITLE "0:"
    INDEX 01 07:02:20
  TRACK 174 AUDIO
    TITLE "4:cjc152_1337"
    INDEX 01 07:04:13
  TRACK 175 AUDIO
    TITLE "0:"
    INDEX 01 07:09:55
  TRACK 176 AUDIO
    TITLE "4:cjc152_1338"
    INDEX 01 07:10:51
  TRACK 177 AUDIO
    TITLE "0:"
    INDEX 01 07:15:36
  TRACK 178 AUDIO
    TITLE "4:cjc152_1339"
    INDEX 01 07:17:19
  TRACK 179 AUDIO
    TITLE "0:"
    INDEX 01 07:20:51
  TRACK 180 AUDIO
    TITLE "4:cjc152_1340"
    INDEX 01 07:21:45
  TRACK 181 AUDIO
    TITLE "0:"
    INDEX 01 07:25:48
  TRACK 182 AUDIO
    TITLE "4:cjc152_1341"
    INDEX 01 07:27:33
  TRACK 183 AUDIO
    TITLE "0:"
    INDEX 01 07:30:10
  TRACK 184 AUDIO
    TITLE "4:cjc152_1342"
    INDEX 01 07:31:04
  TRACK 185 AUDIO
    TITLE "0:"
    INDEX 01 07:34:18
  TRACK 186 AUDIO
    TITLE "4:cjc152_1343"
    INDEX 01 07:35:74
  TRACK 187 AUDIO
    TITLE "0:"
    INDEX 01 07:38:41
  TRACK 188 AUDIO
    TITLE "4:cjc152_1344"
    INDEX 01 07:39:37
  TRACK 189 AUDIO
    TITLE "0:"
    INDEX 01 07:41:71
  TRACK 190 AUDIO
    TITLE "4:cjc152_1345"
    INDEX 01 07:44:02
  TRACK 191 AUDIO
    TITLE "0:"
    INDEX 01 07:46:35
  TRACK 192 AUDIO
    TITLE "4:cjc152_1346"
    INDEX 01 07:47:26
  TRACK 193 AUDIO
    TITLE "0:"
    INDEX 01 07:50:19
  TRACK 194 AUDIO
    TITLE "4:cjc152_1347"
    INDEX 01 07:52:31
  TRACK 195 AUDIO
    TITLE "0:"
    INDEX 01 07:55:43
  TRACK 196 AUDIO
    TITLE "4:cjc152_1348"
    INDEX 01 07:56:37
  TRACK 197 AUDIO
    TITLE "0:"
    INDEX 01 08:01:32
  TRACK 198 AUDIO
    TITLE "4:cjc152_1349"
    INDEX 01 08:03:15
  TRACK 199 AUDIO
    TITLE "0:"
    INDEX 01 08:05:59
  TRACK 200 AUDIO
    TITLE "4:cjc152_1350"
    INDEX 01 08:06:53
  TRACK 201 AUDIO
    TITLE "0:"
    INDEX 01 08:09:36
  TRACK 202 AUDIO
    TITLE "4:cjc152_1351"
    INDEX 01 08:11:19
  TRACK 203 AUDIO
    TITLE "0:"
    INDEX 01 08:15:27
  TRACK 204 AUDIO
    TITLE "4:cjc152_1352"
    INDEX 01 08:16:18
  TRACK 205 AUDIO
    TITLE "0:"
    INDEX 01 08:19:67
  TRACK 206 AUDIO
    TITLE "4:cjc152_1353"
    INDEX 01 08:21:53
  TRACK 207 AUDIO
    TITLE "0:"
    INDEX 01 08:26:01
  TRACK 208 AUDIO
    TITLE "4:cjc152_1354"
    INDEX 01 08:26:66
  TRACK 209 AUDIO
    TITLE "0:"
    INDEX 01 08:30:30
  TRACK 210 AUDIO
    TITLE "4:cjc152_1355"
    INDEX 01 08:32:13
  TRACK 211 AUDIO
    TITLE "0:"
    INDEX 01 08:36:33
  TRACK 212 AUDIO
    TITLE "4:cjc152_1356"
    INDEX 01 08:37:22
  TRACK 213 AUDIO
    TITLE "0:"
    INDEX 01 08:41:10
  TRACK 214 AUDIO
    TITLE "4:cjc152_1357"
    INDEX 01 08:42:68
  TRACK 215 AUDIO
    TITLE "0:"
    INDEX 01 08:46:06
  TRACK 216 AUDIO
    TITLE "4:cjc152_1358"
    INDEX 01 08:46:70
  TRACK 217 AUDIO
    TITLE "0:"
    INDEX 01 08:50:05
  TRACK 218 AUDIO
    TITLE "4:cjc152_1359"
    INDEX 01 08:51:65
  TRACK 219 AUDIO
    TITLE "0:"
    INDEX 01 08:54:50
  TRACK 220 AUDIO
    TITLE "4:cjc152_1360"
    INDEX 01 08:55:46
  TRACK 221 AUDIO
    TITLE "0:"
    INDEX 01 08:58:15
